<svg width="22" height="22" viewBox="0 0 22 22" fill="none" xmlns="http://www.w3.org/2000/svg">
<rect x="2" y="2" width="20" height="20" rx="2" fill="#0E1D6B"/>
<rect x="1" y="1" width="20" height="20" rx="2" fill="#1D36B9"/>
<rect width="20" height="20" rx="2" fill="#1C41FF"/>
<path d="M3.02868 4.31818V2.72727H9.3497V4.31818H7.1622V10H5.21618V4.31818H3.02868ZM16.7964 6.36364C16.7964 7.1733 16.639 7.8563 16.3241 8.41264C16.0093 8.96662 15.5843 9.38684 15.0493 9.6733C14.5142 9.95739 13.9176 10.0994 13.2595 10.0994C12.5966 10.0994 11.9977 9.9562 11.4626 9.66974C10.93 9.38092 10.5062 8.95952 10.1913 8.40554C9.87882 7.8492 9.72257 7.16856 9.72257 6.36364C9.72257 5.55398 9.87882 4.87216 10.1913 4.31818C10.5062 3.76184 10.93 3.34162 11.4626 3.05753C11.9977 2.77107 12.5966 2.62784 13.2595 2.62784C13.9176 2.62784 14.5142 2.77107 15.0493 3.05753C15.5843 3.34162 16.0093 3.76184 16.3241 4.31818C16.639 4.87216 16.7964 5.55398 16.7964 6.36364ZM14.7652 6.36364C14.7652 5.92803 14.7072 5.56108 14.5912 5.26278C14.4775 4.96212 14.3083 4.73485 14.0834 4.58097C13.8608 4.42472 13.5862 4.34659 13.2595 4.34659C12.9328 4.34659 12.657 4.42472 12.4321 4.58097C12.2095 4.73485 12.0403 4.96212 11.9243 5.26278C11.8106 5.56108 11.7538 5.92803 11.7538 6.36364C11.7538 6.79924 11.8106 7.16738 11.9243 7.46804C12.0403 7.76634 12.2095 7.99361 12.4321 8.14986C12.657 8.30374 12.9328 8.38068 13.2595 8.38068C13.5862 8.38068 13.8608 8.30374 14.0834 8.14986C14.3083 7.99361 14.4775 7.76634 14.5912 7.46804C14.7072 7.16738 14.7652 6.79924 14.7652 6.36364Z" fill="white"/>
<path d="M5.62056 19H2.82227V11.7273H5.59215C6.34026 11.7273 6.98656 11.8729 7.53107 12.1641C8.07795 12.4529 8.49935 12.8696 8.79528 13.4141C9.09357 13.9562 9.24272 14.6061 9.24272 15.3636C9.24272 16.1212 9.09476 16.7723 8.79883 17.3168C8.5029 17.8589 8.08387 18.2756 7.54173 18.5668C6.99959 18.8556 6.3592 19 5.62056 19ZM4.7967 17.3239H5.54954C5.90939 17.3239 6.21597 17.2659 6.46928 17.1499C6.72496 17.0339 6.91909 16.8338 7.05167 16.5497C7.18661 16.2656 7.25408 15.8703 7.25408 15.3636C7.25408 14.857 7.18543 14.4616 7.04812 14.1776C6.91317 13.8935 6.71431 13.6934 6.45153 13.5774C6.19111 13.4614 5.87151 13.4034 5.49272 13.4034H4.7967V17.3239ZM17.2017 15.3636C17.2017 16.1733 17.0443 16.8563 16.7294 17.4126C16.4145 17.9666 15.9896 18.3868 15.4545 18.6733C14.9195 18.9574 14.3229 19.0994 13.6648 19.0994C13.0019 19.0994 12.4029 18.9562 11.8679 18.6697C11.3352 18.3809 10.9115 17.9595 10.5966 17.4055C10.2841 16.8492 10.1278 16.1686 10.1278 15.3636C10.1278 14.554 10.2841 13.8722 10.5966 13.3182C10.9115 12.7618 11.3352 12.3416 11.8679 12.0575C12.4029 11.7711 13.0019 11.6278 13.6648 11.6278C14.3229 11.6278 14.9195 11.7711 15.4545 12.0575C15.9896 12.3416 16.4145 12.7618 16.7294 13.3182C17.0443 13.8722 17.2017 14.554 17.2017 15.3636ZM15.1705 15.3636C15.1705 14.928 15.1125 14.5611 14.9964 14.2628C14.8828 13.9621 14.7135 13.7348 14.4886 13.581C14.2661 13.4247 13.9915 13.3466 13.6648 13.3466C13.3381 13.3466 13.0623 13.4247 12.8374 13.581C12.6148 13.7348 12.4455 13.9621 12.3295 14.2628C12.2159 14.5611 12.1591 14.928 12.1591 15.3636C12.1591 15.7992 12.2159 16.1674 12.3295 16.468C12.4455 16.7663 12.6148 16.9936 12.8374 17.1499C13.0623 17.3037 13.3381 17.3807 13.6648 17.3807C13.9915 17.3807 14.2661 17.3037 14.4886 17.1499C14.7135 16.9936 14.8828 16.7663 14.9964 16.468C15.1125 16.1674 15.1705 15.7992 15.1705 15.3636Z" fill="white"/>
</svg>
